<svg width="44" height="49" viewBox="0 0 44 49" fill="none" xmlns="http://www.w3.org/2000/svg">
<path opacity="0.2" d="M24.159 47.2921C22.7667 48.096 21.0513 48.096 19.659 47.2921L3.25 37.8184C1.8577 37.0145 1 35.5289 1 33.9213L1 14.9738C0.999999 13.3661 1.8577 11.8805 3.25 11.0766L19.659 1.60289C21.0513 0.799038 22.7667 0.799038 24.159 1.60289L40.568 11.0766C41.9603 11.8805 42.818 13.3661 42.818 14.9738V33.9212C42.818 35.5289 41.9603 37.0145 40.568 37.8184L24.159 47.2921Z" stroke="#1E1E1E"/>
<path fill-rule="evenodd" clip-rule="evenodd" d="M22.5 16C18.3563 16 15 19.4419 15 23.6912C15 27.0907 17.1501 29.9707 20.1289 30.9906C20.5018 31.0614 20.64 30.8253 20.64 30.6176C20.64 30.4334 20.6354 29.9518 20.6308 29.3097C18.5451 29.7724 18.1031 28.2805 18.1031 28.2805C17.7624 27.3928 17.2698 27.152 17.2698 27.152C16.5884 26.6752 17.3204 26.6846 17.3204 26.6846C18.0709 26.7413 18.4715 27.4778 18.4715 27.4778C19.139 28.6534 20.2256 28.3135 20.6538 28.1152C20.7228 27.6195 20.9162 27.2795 21.128 27.0859C19.4659 26.8971 17.7164 26.2361 17.7164 23.2899C17.7164 22.4495 18.0065 21.7649 18.4899 21.2266C18.4116 21.0283 18.1538 20.2493 18.5589 19.1917C18.5589 19.1917 19.1897 18.984 20.6216 19.9802C21.2201 19.8102 21.86 19.7252 22.5 19.7205C23.1354 19.7252 23.7799 19.8102 24.3785 19.9802C25.8103 18.984 26.4411 19.1917 26.4411 19.1917C26.8508 20.2493 26.593 21.0331 26.5147 21.2266C26.9936 21.7649 27.2836 22.4495 27.2836 23.2899C27.2836 26.2455 25.5295 26.8924 23.8582 27.0859C24.1252 27.322 24.3692 27.7941 24.3692 28.5118C24.3692 29.5411 24.36 30.3673 24.36 30.6223C24.36 30.83 24.4936 31.0661 24.8757 30.9906C27.8545 29.9707 30 27.0907 30 23.6959C30 19.4419 26.6436 16 22.5 16Z" fill="#1E1E1E"/>
</svg>
