<svg width="14" height="11" viewBox="0 0 14 11" fill="none" xmlns="http://www.w3.org/2000/svg">
<path d="M4.11498 10.6316C9.05274 10.6316 11.7535 6.54179 11.7535 2.99514C11.7535 2.87897 11.7509 2.76333 11.7456 2.64821C12.2696 2.26938 12.7254 1.79687 13.085 1.25844C12.604 1.47193 12.0864 1.61582 11.5431 1.68071C12.0974 1.34844 12.5229 0.822563 12.7233 0.196222C12.2047 0.503899 11.63 0.72733 11.0186 0.84768C10.5293 0.326514 9.83156 0 9.05954 0C7.57675 0 6.3745 1.20193 6.3745 2.6838C6.3745 2.89467 6.39805 3.09926 6.44411 3.29549C4.21338 3.18351 2.2344 2.11554 0.910717 0.49134C0.679898 0.887971 0.546954 1.34896 0.546954 1.8403C0.546954 2.7717 1.02115 3.59322 1.74135 4.0741C1.30117 4.06049 0.887164 3.93962 0.525494 3.73816C0.524971 3.74915 0.524971 3.76066 0.524971 3.77218C0.524971 5.07195 1.45034 6.15719 2.67877 6.40312C2.45318 6.46434 2.21608 6.49731 1.97113 6.49731C1.79841 6.49731 1.62987 6.48004 1.46657 6.44865C1.80835 7.51505 2.79915 8.29104 3.97471 8.3125C3.05561 9.0325 1.89837 9.46157 0.640643 9.46157C0.423955 9.46157 0.210407 9.44901 0 9.42442C1.18812 10.1873 2.59869 10.6316 4.11498 10.6316Z" fill="white"/>
</svg>
