<svg width="49" height="49" viewBox="0 0 49 49" fill="none" xmlns="http://www.w3.org/2000/svg">
<path d="M22 1.44338C23.547 0.550212 25.453 0.550212 27 1.44338L43.2176 10.8066C44.7646 11.6998 45.7176 13.3504 45.7176 15.1368V33.8632C45.7176 35.6496 44.7646 37.3002 43.2176 38.1934L27 47.5566C25.453 48.4498 23.547 48.4498 22 47.5566L5.78238 38.1934C4.23537 37.3002 3.28238 35.6496 3.28238 33.8632V15.1368C3.28238 13.3504 4.23537 11.6998 5.78238 10.8066L22 1.44338Z" fill="#1E1E1E"/>
<g clip-path="url(#clip0)">
<path d="M24.4635 28.3687L25.3962 28.3687L25.3962 20.969L24.4635 20.969L24.4635 28.3687Z" fill="white"/>
<path d="M24.6003 20.6316L25.2594 20.6316L28.3684 23.8129L27.7093 24.4873L24.9298 21.6448L22.1503 24.4873L21.4912 23.8129L24.6003 20.6316Z" fill="white"/>
</g>
<defs>
<clipPath id="clip0">
<rect width="6.87719" height="7.73684" fill="white" transform="translate(28.3684 28.3687) rotate(180)"/>
</clipPath>
</defs>
</svg>
