<svg width="44" height="49" viewBox="0 0 44 49" fill="none" xmlns="http://www.w3.org/2000/svg">
<path d="M19.7738 28C24.3021 28 26.7789 24.5379 26.7789 21.5355C26.7789 21.4372 26.7765 21.3393 26.7717 21.2418C27.2522 20.9211 27.6702 20.5211 28 20.0653C27.5589 20.246 27.0842 20.3679 26.5859 20.4228C27.0942 20.1415 27.4845 19.6963 27.6683 19.1661C27.1926 19.4266 26.6656 19.6157 26.105 19.7176C25.6562 19.2764 25.0163 19 24.3083 19C22.9485 19 21.8459 20.0175 21.8459 21.2719C21.8459 21.4504 21.8675 21.6236 21.9098 21.7897C19.864 21.695 18.0491 20.7909 16.8352 19.4159C16.6235 19.7517 16.5016 20.1419 16.5016 20.5579C16.5016 21.3463 16.9365 22.0418 17.597 22.4489C17.1933 22.4373 16.8136 22.335 16.4819 22.1645C16.4814 22.1738 16.4814 22.1835 16.4814 22.1933C16.4814 23.2936 17.3301 24.2123 18.4566 24.4205C18.2498 24.4723 18.0323 24.5002 17.8077 24.5002C17.6493 24.5002 17.4947 24.4856 17.345 24.459C17.6584 25.3618 18.567 26.0186 19.6451 26.0368C18.8022 26.6463 17.741 27.0096 16.5875 27.0096C16.3888 27.0096 16.193 26.9989 16 26.9781C17.0896 27.6239 18.3832 28 19.7738 28Z" fill="#1E1E1E"/>
<path opacity="0.2" d="M24.159 47.2921C22.7667 48.096 21.0513 48.096 19.659 47.2921L3.25 37.8184C1.8577 37.0145 1 35.5289 1 33.9213L1 14.9738C0.999999 13.3661 1.8577 11.8805 3.25 11.0766L19.659 1.60289C21.0513 0.799038 22.7667 0.799038 24.159 1.60289L40.568 11.0766C41.9603 11.8805 42.818 13.3661 42.818 14.9738V33.9212C42.818 35.5289 41.9603 37.0145 40.568 37.8184L24.159 47.2921Z" stroke="#1E1E1E"/>
</svg>
