<svg width="1716" height="3587" viewBox="0 0 1716 3587" fill="none" xmlns="http://www.w3.org/2000/svg">
<g filter="url(#filter0_d)">
<ellipse cx="1277" cy="2521" rx="1" ry="1" transform="rotate(90 1277 2521)" fill="#555555"/>
<ellipse cx="952" cy="2249" rx="1" ry="1" transform="rotate(90 952 2249)" fill="#555555"/>
<ellipse cx="614" cy="1471" rx="1" ry="1" transform="rotate(90 614 1471)" fill="#555555"/>
<ellipse cx="519" cy="1315" rx="1" ry="1" transform="rotate(90 519 1315)" fill="#555555"/>
<ellipse cx="525" cy="943" rx="1" ry="1" transform="rotate(90 525 943)" fill="#555555"/>
<ellipse cx="577" cy="1034" rx="1" ry="1" transform="rotate(90 577 1034)" fill="#555555"/>
<ellipse cx="745" cy="2590" rx="1" ry="1" transform="rotate(90 745 2590)" fill="#555555"/>
<ellipse cx="893" cy="2435" rx="1" ry="1" transform="rotate(90 893 2435)" fill="#555555"/>
<ellipse cx="644" cy="2107" rx="1" ry="1" transform="rotate(90 644 2107)" fill="#555555"/>
<ellipse cx="449" cy="2194" rx="1" ry="1" transform="rotate(90 449 2194)" fill="#555555"/>
<ellipse cx="598" cy="1817" rx="1" ry="1" transform="rotate(90 598 1817)" fill="#555555"/>
<ellipse cx="982" cy="1892" rx="1" ry="1" transform="rotate(90 982 1892)" fill="#555555"/>
<ellipse cx="1083" cy="1531" rx="1" ry="1" transform="rotate(90 1083 1531)" fill="#555555"/>
<ellipse cx="1303" cy="1890" rx="1" ry="1" transform="rotate(90 1303 1890)" fill="#555555"/>
<ellipse cx="1373" cy="1635" rx="1" ry="1" transform="rotate(90 1373 1635)" fill="#555555"/>
<ellipse cx="1151" cy="1727" rx="1" ry="1" transform="rotate(90 1151 1727)" fill="#555555"/>
<ellipse cx="858" cy="1263" rx="1" ry="1" transform="rotate(90 858 1263)" fill="#555555"/>
<ellipse cx="1123" cy="1291" rx="1" ry="1" transform="rotate(90 1123 1291)" fill="#555555"/>
<ellipse cx="725" cy="1032" rx="1" ry="1" transform="rotate(90 725 1032)" fill="#555555"/>
<ellipse cx="1068" cy="914" rx="1" ry="1" transform="rotate(90 1068 914)" fill="#555555"/>
<ellipse cx="1237" cy="1078" rx="1" ry="1" transform="rotate(90 1237 1078)" fill="#555555"/>
<ellipse cx="1244" cy="943" rx="1" ry="1" transform="rotate(90 1244 943)" fill="#555555"/>
<ellipse cx="1172" cy="967" rx="1" ry="1" transform="rotate(90 1172 967)" fill="#555555"/>
<ellipse cx="1504" cy="1101" rx="1" ry="1" transform="rotate(90 1504 1101)" fill="#555555"/>
<ellipse cx="1246" cy="1255" rx="1" ry="1" transform="rotate(90 1246 1255)" fill="#555555"/>
<ellipse cx="1366" cy="1496" rx="1" ry="1" transform="rotate(90 1366 1496)" fill="#555555"/>
<ellipse cx="1402" cy="968" rx="1" ry="1" transform="rotate(90 1402 968)" fill="#555555"/>
<ellipse cx="1006" cy="2388" rx="1" ry="1" transform="rotate(90 1006 2388)" fill="#555555"/>
<ellipse cx="1059" cy="2571" rx="1" ry="1" transform="rotate(90 1059 2571)" fill="#555555"/>
<ellipse cx="826" cy="2718" rx="1" ry="1" transform="rotate(90 826 2718)" fill="#555555"/>
<ellipse cx="612" cy="2596" rx="1" ry="1" transform="rotate(90 612 2596)" fill="#555555"/>
<ellipse cx="492" cy="2708" rx="1" ry="1" transform="rotate(90 492 2708)" fill="#555555"/>
<ellipse cx="1255" cy="2638" rx="1" ry="1" transform="rotate(90 1255 2638)" fill="#555555"/>
<ellipse cx="1412" cy="2706" rx="1" ry="1" transform="rotate(90 1412 2706)" fill="#555555"/>
<ellipse cx="588" cy="1210" rx="1" ry="1" transform="rotate(90 588 1210)" fill="#555555"/>
</g>
<ellipse cx="1488" cy="3194" rx="1" ry="1" transform="rotate(90 1488 3194)" fill="#555555"/>
<ellipse cx="1163" cy="2922" rx="1" ry="1" transform="rotate(90 1163 2922)" fill="#555555"/>
<ellipse cx="825" cy="2144" rx="1" ry="1" transform="rotate(90 825 2144)" fill="#555555"/>
<ellipse cx="730" cy="1988" rx="1" ry="1" transform="rotate(90 730 1988)" fill="#555555"/>
<ellipse cx="736" cy="1616" rx="1" ry="1" transform="rotate(90 736 1616)" fill="#555555"/>
<ellipse cx="788" cy="1707" rx="1" ry="1" transform="rotate(90 788 1707)" fill="#555555"/>
<ellipse cx="956" cy="3263" rx="1" ry="1" transform="rotate(90 956 3263)" fill="#555555"/>
<ellipse cx="1104" cy="3108" rx="1" ry="1" transform="rotate(90 1104 3108)" fill="#555555"/>
<ellipse cx="855" cy="2780" rx="1" ry="1" transform="rotate(90 855 2780)" fill="#555555"/>
<ellipse cx="660" cy="2867" rx="1" ry="1" transform="rotate(90 660 2867)" fill="#555555"/>
<ellipse cx="809" cy="2490" rx="1" ry="1" transform="rotate(90 809 2490)" fill="#555555"/>
<ellipse cx="1193" cy="2565" rx="1" ry="1" transform="rotate(90 1193 2565)" fill="#555555"/>
<ellipse cx="1294" cy="2204" rx="1" ry="1" transform="rotate(90 1294 2204)" fill="#555555"/>
<ellipse cx="1514" cy="2563" rx="1" ry="1" transform="rotate(90 1514 2563)" fill="#555555"/>
<ellipse cx="1584" cy="2308" rx="1" ry="1" transform="rotate(90 1584 2308)" fill="#555555"/>
<ellipse cx="1362" cy="2400" rx="1" ry="1" transform="rotate(90 1362 2400)" fill="#555555"/>
<ellipse cx="1069" cy="1936" rx="1" ry="1" transform="rotate(90 1069 1936)" fill="#555555"/>
<ellipse cx="1334" cy="1964" rx="1" ry="1" transform="rotate(90 1334 1964)" fill="#555555"/>
<ellipse cx="936" cy="1705" rx="1" ry="1" transform="rotate(90 936 1705)" fill="#555555"/>
<ellipse cx="1279" cy="1587" rx="1" ry="1" transform="rotate(90 1279 1587)" fill="#555555"/>
<ellipse cx="1448" cy="1751" rx="1" ry="1" transform="rotate(90 1448 1751)" fill="#555555"/>
<ellipse cx="1455" cy="1616" rx="1" ry="1" transform="rotate(90 1455 1616)" fill="#555555"/>
<ellipse cx="1383" cy="1640" rx="1" ry="1" transform="rotate(90 1383 1640)" fill="#555555"/>
<ellipse cx="1715" cy="1774" rx="1" ry="1" transform="rotate(90 1715 1774)" fill="#555555"/>
<ellipse cx="1457" cy="1928" rx="1" ry="1" transform="rotate(90 1457 1928)" fill="#555555"/>
<ellipse cx="1577" cy="2169" rx="1" ry="1" transform="rotate(90 1577 2169)" fill="#555555"/>
<ellipse cx="1613" cy="1641" rx="1" ry="1" transform="rotate(90 1613 1641)" fill="#555555"/>
<ellipse cx="1217" cy="3061" rx="1" ry="1" transform="rotate(90 1217 3061)" fill="#555555"/>
<ellipse cx="1270" cy="3244" rx="1" ry="1" transform="rotate(90 1270 3244)" fill="#555555"/>
<ellipse cx="1037" cy="3391" rx="1" ry="1" transform="rotate(90 1037 3391)" fill="#555555"/>
<ellipse cx="823" cy="3269" rx="1" ry="1" transform="rotate(90 823 3269)" fill="#555555"/>
<ellipse cx="703" cy="3381" rx="1" ry="1" transform="rotate(90 703 3381)" fill="#555555"/>
<ellipse cx="1466" cy="3311" rx="1" ry="1" transform="rotate(90 1466 3311)" fill="#555555"/>
<ellipse cx="1623" cy="3379" rx="1" ry="1" transform="rotate(90 1623 3379)" fill="#555555"/>
<ellipse cx="799" cy="1883" rx="1" ry="1" transform="rotate(90 799 1883)" fill="#555555"/>
<ellipse cx="1088" cy="1608" rx="1" ry="1" transform="rotate(90 1088 1608)" fill="#555555"/>
<ellipse cx="763" cy="1336" rx="1" ry="1" transform="rotate(90 763 1336)" fill="#555555"/>
<ellipse cx="425" cy="558" rx="1" ry="1" transform="rotate(90 425 558)" fill="#555555"/>
<ellipse cx="330" cy="402" rx="1" ry="1" transform="rotate(90 330 402)" fill="#555555"/>
<ellipse cx="336" cy="30" rx="1" ry="1" transform="rotate(90 336 30)" fill="#555555"/>
<ellipse cx="388" cy="121" rx="1" ry="1" transform="rotate(90 388 121)" fill="#555555"/>
<ellipse cx="556" cy="1677" rx="1" ry="1" transform="rotate(90 556 1677)" fill="#555555"/>
<ellipse cx="704" cy="1522" rx="1" ry="1" transform="rotate(90 704 1522)" fill="#555555"/>
<ellipse cx="455" cy="1194" rx="1" ry="1" transform="rotate(90 455 1194)" fill="#555555"/>
<ellipse cx="260" cy="1281" rx="1" ry="1" transform="rotate(90 260 1281)" fill="#555555"/>
<ellipse cx="409" cy="904" rx="1" ry="1" transform="rotate(90 409 904)" fill="#555555"/>
<ellipse cx="793" cy="979" rx="1" ry="1" transform="rotate(90 793 979)" fill="#555555"/>
<ellipse cx="894" cy="618" rx="1" ry="1" transform="rotate(90 894 618)" fill="#555555"/>
<ellipse cx="1114" cy="977" rx="1" ry="1" transform="rotate(90 1114 977)" fill="#555555"/>
<ellipse cx="1184" cy="722" rx="1" ry="1" transform="rotate(90 1184 722)" fill="#555555"/>
<ellipse cx="962" cy="814" rx="1" ry="1" transform="rotate(90 962 814)" fill="#555555"/>
<ellipse cx="669" cy="350" rx="1" ry="1" transform="rotate(90 669 350)" fill="#555555"/>
<ellipse cx="934" cy="378" rx="1" ry="1" transform="rotate(90 934 378)" fill="#555555"/>
<ellipse cx="536" cy="119" rx="1" ry="1" transform="rotate(90 536 119)" fill="#555555"/>
<ellipse cx="879" cy="1" rx="1" ry="1" transform="rotate(90 879 1)" fill="#555555"/>
<ellipse cx="1048" cy="165" rx="1" ry="1" transform="rotate(90 1048 165)" fill="#555555"/>
<ellipse cx="1055" cy="30" rx="1" ry="1" transform="rotate(90 1055 30)" fill="#555555"/>
<ellipse cx="983" cy="54" rx="1" ry="1" transform="rotate(90 983 54)" fill="#555555"/>
<ellipse cx="1315" cy="188" rx="1" ry="1" transform="rotate(90 1315 188)" fill="#555555"/>
<ellipse cx="1057" cy="342" rx="1" ry="1" transform="rotate(90 1057 342)" fill="#555555"/>
<ellipse cx="1177" cy="583" rx="1" ry="1" transform="rotate(90 1177 583)" fill="#555555"/>
<ellipse cx="1213" cy="55" rx="1" ry="1" transform="rotate(90 1213 55)" fill="#555555"/>
<ellipse cx="817" cy="1475" rx="1" ry="1" transform="rotate(90 817 1475)" fill="#555555"/>
<ellipse cx="870" cy="1658" rx="1" ry="1" transform="rotate(90 870 1658)" fill="#555555"/>
<ellipse cx="637" cy="1805" rx="1" ry="1" transform="rotate(90 637 1805)" fill="#555555"/>
<ellipse cx="423" cy="1683" rx="1" ry="1" transform="rotate(90 423 1683)" fill="#555555"/>
<ellipse cx="303" cy="1795" rx="1" ry="1" transform="rotate(90 303 1795)" fill="#555555"/>
<ellipse cx="1066" cy="1725" rx="1" ry="1" transform="rotate(90 1066 1725)" fill="#555555"/>
<ellipse cx="1223" cy="1793" rx="1" ry="1" transform="rotate(90 1223 1793)" fill="#555555"/>
<ellipse cx="399" cy="297" rx="1" ry="1" transform="rotate(90 399 297)" fill="#555555"/>
<g filter="url(#filter1_f)">
<ellipse cx="923" cy="2329" rx="1" ry="1" transform="rotate(90 923 2329)" fill="#555555"/>
<ellipse cx="598" cy="2057" rx="1" ry="1" transform="rotate(90 598 2057)" fill="#555555"/>
<ellipse cx="260" cy="1279" rx="1" ry="1" transform="rotate(90 260 1279)" fill="#555555"/>
<ellipse cx="165" cy="1123" rx="1" ry="1" transform="rotate(90 165 1123)" fill="#555555"/>
<ellipse cx="171" cy="751" rx="1" ry="1" transform="rotate(90 171 751)" fill="#555555"/>
<ellipse cx="223" cy="842" rx="1" ry="1" transform="rotate(90 223 842)" fill="#555555"/>
<ellipse cx="391" cy="2398" rx="1" ry="1" transform="rotate(90 391 2398)" fill="#555555"/>
<ellipse cx="539" cy="2243" rx="1" ry="1" transform="rotate(90 539 2243)" fill="#555555"/>
<ellipse cx="290" cy="1915" rx="1" ry="1" transform="rotate(90 290 1915)" fill="#555555"/>
<ellipse cx="95" cy="2002" rx="1" ry="1" transform="rotate(90 95 2002)" fill="#555555"/>
<ellipse cx="244" cy="1625" rx="1" ry="1" transform="rotate(90 244 1625)" fill="#555555"/>
<ellipse cx="628" cy="1700" rx="1" ry="1" transform="rotate(90 628 1700)" fill="#555555"/>
<ellipse cx="729" cy="1339" rx="1" ry="1" transform="rotate(90 729 1339)" fill="#555555"/>
<ellipse cx="949" cy="1698" rx="1" ry="1" transform="rotate(90 949 1698)" fill="#555555"/>
<ellipse cx="1019" cy="1443" rx="1" ry="1" transform="rotate(90 1019 1443)" fill="#555555"/>
<ellipse cx="797" cy="1535" rx="1" ry="1" transform="rotate(90 797 1535)" fill="#555555"/>
<ellipse cx="504" cy="1071" rx="1" ry="1" transform="rotate(90 504 1071)" fill="#555555"/>
<ellipse cx="769" cy="1099" rx="1" ry="1" transform="rotate(90 769 1099)" fill="#555555"/>
<ellipse cx="371" cy="840" rx="1" ry="1" transform="rotate(90 371 840)" fill="#555555"/>
<ellipse cx="714" cy="722" rx="1" ry="1" transform="rotate(90 714 722)" fill="#555555"/>
<ellipse cx="883" cy="886" rx="1" ry="1" transform="rotate(90 883 886)" fill="#555555"/>
<ellipse cx="890" cy="751" rx="1" ry="1" transform="rotate(90 890 751)" fill="#555555"/>
<ellipse cx="818" cy="775" rx="1" ry="1" transform="rotate(90 818 775)" fill="#555555"/>
<ellipse cx="1150" cy="909" rx="1" ry="1" transform="rotate(90 1150 909)" fill="#555555"/>
<ellipse cx="892" cy="1063" rx="1" ry="1" transform="rotate(90 892 1063)" fill="#555555"/>
<ellipse cx="1012" cy="1304" rx="1" ry="1" transform="rotate(90 1012 1304)" fill="#555555"/>
<ellipse cx="1048" cy="776" rx="1" ry="1" transform="rotate(90 1048 776)" fill="#555555"/>
<ellipse cx="652" cy="2196" rx="1" ry="1" transform="rotate(90 652 2196)" fill="#555555"/>
<ellipse cx="705" cy="2379" rx="1" ry="1" transform="rotate(90 705 2379)" fill="#555555"/>
<ellipse cx="472" cy="2526" rx="1" ry="1" transform="rotate(90 472 2526)" fill="#555555"/>
<ellipse cx="258" cy="2404" rx="1" ry="1" transform="rotate(90 258 2404)" fill="#555555"/>
<ellipse cx="138" cy="2516" rx="1" ry="1" transform="rotate(90 138 2516)" fill="#555555"/>
<ellipse cx="901" cy="2446" rx="1" ry="1" transform="rotate(90 901 2446)" fill="#555555"/>
<ellipse cx="1058" cy="2514" rx="1" ry="1" transform="rotate(90 1058 2514)" fill="#555555"/>
<ellipse cx="234" cy="1018" rx="1" ry="1" transform="rotate(90 234 1018)" fill="#555555"/>
</g>
<ellipse cx="1252" cy="3389" rx="1" ry="1" transform="rotate(90 1252 3389)" fill="#555555"/>
<ellipse cx="927" cy="3117" rx="1" ry="1" transform="rotate(90 927 3117)" fill="#555555"/>
<ellipse cx="589" cy="2339" rx="1" ry="1" transform="rotate(90 589 2339)" fill="#555555"/>
<ellipse cx="494" cy="2183" rx="1" ry="1" transform="rotate(90 494 2183)" fill="#555555"/>
<ellipse cx="500" cy="1811" rx="1" ry="1" transform="rotate(90 500 1811)" fill="#555555"/>
<ellipse cx="552" cy="1902" rx="1" ry="1" transform="rotate(90 552 1902)" fill="#555555"/>
<ellipse cx="720" cy="3458" rx="1" ry="1" transform="rotate(90 720 3458)" fill="#555555"/>
<ellipse cx="868" cy="3303" rx="1" ry="1" transform="rotate(90 868 3303)" fill="#555555"/>
<ellipse cx="619" cy="2975" rx="1" ry="1" transform="rotate(90 619 2975)" fill="#555555"/>
<ellipse cx="424" cy="3062" rx="1" ry="1" transform="rotate(90 424 3062)" fill="#555555"/>
<ellipse cx="573" cy="2685" rx="1" ry="1" transform="rotate(90 573 2685)" fill="#555555"/>
<ellipse cx="957" cy="2760" rx="1" ry="1" transform="rotate(90 957 2760)" fill="#555555"/>
<ellipse cx="1058" cy="2399" rx="1" ry="1" transform="rotate(90 1058 2399)" fill="#555555"/>
<ellipse cx="1278" cy="2758" rx="1" ry="1" transform="rotate(90 1278 2758)" fill="#555555"/>
<ellipse cx="1348" cy="2503" rx="1" ry="1" transform="rotate(90 1348 2503)" fill="#555555"/>
<ellipse cx="1126" cy="2595" rx="1" ry="1" transform="rotate(90 1126 2595)" fill="#555555"/>
<ellipse cx="833" cy="2131" rx="1" ry="1" transform="rotate(90 833 2131)" fill="#555555"/>
<ellipse cx="1098" cy="2159" rx="1" ry="1" transform="rotate(90 1098 2159)" fill="#555555"/>
<ellipse cx="700" cy="1900" rx="1" ry="1" transform="rotate(90 700 1900)" fill="#555555"/>
<ellipse cx="1043" cy="1782" rx="1" ry="1" transform="rotate(90 1043 1782)" fill="#555555"/>
<ellipse cx="1212" cy="1946" rx="1" ry="1" transform="rotate(90 1212 1946)" fill="#555555"/>
<ellipse cx="1219" cy="1811" rx="1" ry="1" transform="rotate(90 1219 1811)" fill="#555555"/>
<ellipse cx="1147" cy="1835" rx="1" ry="1" transform="rotate(90 1147 1835)" fill="#555555"/>
<ellipse cx="1479" cy="1969" rx="1" ry="1" transform="rotate(90 1479 1969)" fill="#555555"/>
<ellipse cx="1221" cy="2123" rx="1" ry="1" transform="rotate(90 1221 2123)" fill="#555555"/>
<ellipse cx="1341" cy="2364" rx="1" ry="1" transform="rotate(90 1341 2364)" fill="#555555"/>
<ellipse cx="1377" cy="1836" rx="1" ry="1" transform="rotate(90 1377 1836)" fill="#555555"/>
<ellipse cx="981" cy="3256" rx="1" ry="1" transform="rotate(90 981 3256)" fill="#555555"/>
<ellipse cx="1034" cy="3439" rx="1" ry="1" transform="rotate(90 1034 3439)" fill="#555555"/>
<ellipse cx="801" cy="3586" rx="1" ry="1" transform="rotate(90 801 3586)" fill="#555555"/>
<ellipse cx="587" cy="3464" rx="1" ry="1" transform="rotate(90 587 3464)" fill="#555555"/>
<ellipse cx="467" cy="3576" rx="1" ry="1" transform="rotate(90 467 3576)" fill="#555555"/>
<ellipse cx="1230" cy="3506" rx="1" ry="1" transform="rotate(90 1230 3506)" fill="#555555"/>
<ellipse cx="1387" cy="3574" rx="1" ry="1" transform="rotate(90 1387 3574)" fill="#555555"/>
<ellipse cx="563" cy="2078" rx="1" ry="1" transform="rotate(90 563 2078)" fill="#555555"/>
<ellipse cx="1345" cy="2181" rx="1" ry="1" transform="rotate(90 1345 2181)" fill="#555555"/>
<ellipse cx="1020" cy="1909" rx="1" ry="1" transform="rotate(90 1020 1909)" fill="#555555"/>
<ellipse cx="682" cy="1131" rx="1" ry="1" transform="rotate(90 682 1131)" fill="#555555"/>
<ellipse cx="587" cy="975" rx="1" ry="1" transform="rotate(90 587 975)" fill="#555555"/>
<ellipse cx="593" cy="603" rx="1" ry="1" transform="rotate(90 593 603)" fill="#555555"/>
<ellipse cx="645" cy="694" rx="1" ry="1" transform="rotate(90 645 694)" fill="#555555"/>
<ellipse cx="813" cy="2250" rx="1" ry="1" transform="rotate(90 813 2250)" fill="#555555"/>
<ellipse cx="961" cy="2095" rx="1" ry="1" transform="rotate(90 961 2095)" fill="#555555"/>
<ellipse cx="712" cy="1767" rx="1" ry="1" transform="rotate(90 712 1767)" fill="#555555"/>
<ellipse cx="517" cy="1854" rx="1" ry="1" transform="rotate(90 517 1854)" fill="#555555"/>
<ellipse cx="666" cy="1477" rx="1" ry="1" transform="rotate(90 666 1477)" fill="#555555"/>
<ellipse cx="1050" cy="1552" rx="1" ry="1" transform="rotate(90 1050 1552)" fill="#555555"/>
<ellipse cx="1151" cy="1191" rx="1" ry="1" transform="rotate(90 1151 1191)" fill="#555555"/>
<ellipse cx="1371" cy="1550" rx="1" ry="1" transform="rotate(90 1371 1550)" fill="#555555"/>
<ellipse cx="1441" cy="1295" rx="1" ry="1" transform="rotate(90 1441 1295)" fill="#555555"/>
<ellipse cx="1219" cy="1387" rx="1" ry="1" transform="rotate(90 1219 1387)" fill="#555555"/>
<ellipse cx="926" cy="923" rx="1" ry="1" transform="rotate(90 926 923)" fill="#555555"/>
<ellipse cx="1191" cy="951" rx="1" ry="1" transform="rotate(90 1191 951)" fill="#555555"/>
<ellipse cx="793" cy="692" rx="1" ry="1" transform="rotate(90 793 692)" fill="#555555"/>
<ellipse cx="1136" cy="574" rx="1" ry="1" transform="rotate(90 1136 574)" fill="#555555"/>
<ellipse cx="1305" cy="738" rx="1" ry="1" transform="rotate(90 1305 738)" fill="#555555"/>
<ellipse cx="1312" cy="603" rx="1" ry="1" transform="rotate(90 1312 603)" fill="#555555"/>
<ellipse cx="1240" cy="627" rx="1" ry="1" transform="rotate(90 1240 627)" fill="#555555"/>
<ellipse cx="1572" cy="761" rx="1" ry="1" transform="rotate(90 1572 761)" fill="#555555"/>
<ellipse cx="1314" cy="915" rx="1" ry="1" transform="rotate(90 1314 915)" fill="#555555"/>
<ellipse cx="1434" cy="1156" rx="1" ry="1" transform="rotate(90 1434 1156)" fill="#555555"/>
<ellipse cx="1470" cy="628" rx="1" ry="1" transform="rotate(90 1470 628)" fill="#555555"/>
<ellipse cx="1074" cy="2048" rx="1" ry="1" transform="rotate(90 1074 2048)" fill="#555555"/>
<ellipse cx="1127" cy="2231" rx="1" ry="1" transform="rotate(90 1127 2231)" fill="#555555"/>
<ellipse cx="894" cy="2378" rx="1" ry="1" transform="rotate(90 894 2378)" fill="#555555"/>
<ellipse cx="680" cy="2256" rx="1" ry="1" transform="rotate(90 680 2256)" fill="#555555"/>
<ellipse cx="560" cy="2368" rx="1" ry="1" transform="rotate(90 560 2368)" fill="#555555"/>
<ellipse cx="1323" cy="2298" rx="1" ry="1" transform="rotate(90 1323 2298)" fill="#555555"/>
<ellipse cx="1480" cy="2366" rx="1" ry="1" transform="rotate(90 1480 2366)" fill="#555555"/>
<ellipse cx="656" cy="870" rx="1" ry="1" transform="rotate(90 656 870)" fill="#555555"/>
<ellipse cx="829" cy="1807" rx="1" ry="1" transform="rotate(90 829 1807)" fill="#555555"/>
<ellipse cx="504" cy="1535" rx="1" ry="1" transform="rotate(90 504 1535)" fill="#555555"/>
<ellipse cx="166" cy="757" rx="1" ry="1" transform="rotate(90 166 757)" fill="#555555"/>
<ellipse cx="71" cy="601" rx="1" ry="1" transform="rotate(90 71 601)" fill="#555555"/>
<ellipse cx="77" cy="229" rx="1" ry="1" transform="rotate(90 77 229)" fill="#555555"/>
<ellipse cx="129" cy="320" rx="1" ry="1" transform="rotate(90 129 320)" fill="#555555"/>
<ellipse cx="297" cy="1876" rx="1" ry="1" transform="rotate(90 297 1876)" fill="#555555"/>
<ellipse cx="445" cy="1721" rx="1" ry="1" transform="rotate(90 445 1721)" fill="#555555"/>
<ellipse cx="196" cy="1393" rx="1" ry="1" transform="rotate(90 196 1393)" fill="#555555"/>
<ellipse cx="1" cy="1480" rx="1" ry="1" transform="rotate(90 1 1480)" fill="#555555"/>
<ellipse cx="150" cy="1103" rx="1" ry="1" transform="rotate(90 150 1103)" fill="#555555"/>
<ellipse cx="534" cy="1178" rx="1" ry="1" transform="rotate(90 534 1178)" fill="#555555"/>
<ellipse cx="635" cy="817" rx="1" ry="1" transform="rotate(90 635 817)" fill="#555555"/>
<ellipse cx="855" cy="1176" rx="1" ry="1" transform="rotate(90 855 1176)" fill="#555555"/>
<ellipse cx="925" cy="921" rx="1" ry="1" transform="rotate(90 925 921)" fill="#555555"/>
<ellipse cx="703" cy="1013" rx="1" ry="1" transform="rotate(90 703 1013)" fill="#555555"/>
<ellipse cx="410" cy="549" rx="1" ry="1" transform="rotate(90 410 549)" fill="#555555"/>
<ellipse cx="675" cy="577" rx="1" ry="1" transform="rotate(90 675 577)" fill="#555555"/>
<ellipse cx="277" cy="318" rx="1" ry="1" transform="rotate(90 277 318)" fill="#555555"/>
<ellipse cx="620" cy="200" rx="1" ry="1" transform="rotate(90 620 200)" fill="#555555"/>
<ellipse cx="789" cy="364" rx="1" ry="1" transform="rotate(90 789 364)" fill="#555555"/>
<ellipse cx="796" cy="229" rx="1" ry="1" transform="rotate(90 796 229)" fill="#555555"/>
<ellipse cx="724" cy="253" rx="1" ry="1" transform="rotate(90 724 253)" fill="#555555"/>
<ellipse cx="1056" cy="387" rx="1" ry="1" transform="rotate(90 1056 387)" fill="#555555"/>
<ellipse cx="798" cy="541" rx="1" ry="1" transform="rotate(90 798 541)" fill="#555555"/>
<ellipse cx="918" cy="782" rx="1" ry="1" transform="rotate(90 918 782)" fill="#555555"/>
<ellipse cx="954" cy="254" rx="1" ry="1" transform="rotate(90 954 254)" fill="#555555"/>
<ellipse cx="558" cy="1674" rx="1" ry="1" transform="rotate(90 558 1674)" fill="#555555"/>
<ellipse cx="611" cy="1857" rx="1" ry="1" transform="rotate(90 611 1857)" fill="#555555"/>
<ellipse cx="378" cy="2004" rx="1" ry="1" transform="rotate(90 378 2004)" fill="#555555"/>
<ellipse cx="164" cy="1882" rx="1" ry="1" transform="rotate(90 164 1882)" fill="#555555"/>
<ellipse cx="44" cy="1994" rx="1" ry="1" transform="rotate(90 44 1994)" fill="#555555"/>
<ellipse cx="807" cy="1924" rx="1" ry="1" transform="rotate(90 807 1924)" fill="#555555"/>
<ellipse cx="964" cy="1992" rx="1" ry="1" transform="rotate(90 964 1992)" fill="#555555"/>
<ellipse cx="140" cy="496" rx="1" ry="1" transform="rotate(90 140 496)" fill="#555555"/>
<defs>
<filter id="filter0_d" x="444" y="913" width="1065" height="1814" filterUnits="userSpaceOnUse" color-interpolation-filters="sRGB">
<feFlood flood-opacity="0" result="BackgroundImageFix"/>
<feColorMatrix in="SourceAlpha" type="matrix" values="0 0 0 0 0 0 0 0 0 0 0 0 0 0 0 0 0 0 127 0"/>
<feOffset dy="4"/>
<feGaussianBlur stdDeviation="2"/>
<feColorMatrix type="matrix" values="0 0 0 0 0 0 0 0 0 0 0 0 0 0 0 0 0 0 0.25 0"/>
<feBlend mode="normal" in2="BackgroundImageFix" result="effect1_dropShadow"/>
<feBlend mode="normal" in="SourceGraphic" in2="effect1_dropShadow" result="shape"/>
</filter>
<filter id="filter1_f" x="92" y="719" width="1061" height="1810" filterUnits="userSpaceOnUse" color-interpolation-filters="sRGB">
<feFlood flood-opacity="0" result="BackgroundImageFix"/>
<feBlend mode="normal" in="SourceGraphic" in2="BackgroundImageFix" result="shape"/>
<feGaussianBlur stdDeviation="1" result="effect1_foregroundBlur"/>
</filter>
</defs>
</svg>
