<svg width="15" height="15" viewBox="0 0 15 15" fill="none" xmlns="http://www.w3.org/2000/svg">
<path fill-rule="evenodd" clip-rule="evenodd" d="M7.5 0C3.35635 0 0 3.44193 0 7.69122C0 11.0907 2.15009 13.9707 5.12891 14.9906C5.50184 15.0614 5.63996 14.8253 5.63996 14.6176C5.63996 14.4334 5.63536 13.9518 5.63075 13.3097C3.54512 13.7724 3.10313 12.2805 3.10313 12.2805C2.76243 11.3928 2.2698 11.152 2.2698 11.152C1.5884 10.6752 2.32044 10.6846 2.32044 10.6846C3.0709 10.7413 3.47145 11.4778 3.47145 11.4778C4.13904 12.6534 5.2256 12.3135 5.65378 12.1152C5.72284 11.6195 5.91621 11.2795 6.12799 11.0859C4.46593 10.8971 2.71639 10.2361 2.71639 7.2899C2.71639 6.44948 3.00645 5.76487 3.48987 5.22663C3.4116 5.02833 3.15378 4.24929 3.55893 3.19169C3.55893 3.19169 4.18969 2.98395 5.62155 3.98017C6.22007 3.8102 6.86004 3.72521 7.5 3.72049C8.13536 3.72521 8.77993 3.8102 9.37845 3.98017C10.8103 2.98395 11.4411 3.19169 11.4411 3.19169C11.8508 4.24929 11.593 5.03305 11.5147 5.22663C11.9936 5.76487 12.2836 6.44948 12.2836 7.2899C12.2836 10.2455 10.5295 10.8924 8.85819 11.0859C9.12523 11.322 9.36924 11.7941 9.36924 12.5118C9.36924 13.5411 9.36004 14.3673 9.36004 14.6223C9.36004 14.83 9.49355 15.0661 9.87569 14.9906C12.8545 13.9707 15 11.0907 15 7.69594C15 3.44193 11.6436 0 7.5 0Z" fill="white"/>
</svg>
