<svg xmlns="http://www.w3.org/2000/svg" viewBox="0 0 421.31 130"><defs><style>.cls-1{fill:#01b8fe;}.cls-2{fill:#1e1e1e;}</style></defs><g id="Layer_2" data-name="Layer 2"><g id="Layer_1-2" data-name="Layer 1"><path class="cls-1" d="M44.24,46.75a1.92,1.92,0,1,1,2.62.71A1.92,1.92,0,0,1,44.24,46.75Zm5.7-.16a1.59,1.59,0,1,0,.58-2.17A1.59,1.59,0,0,0,49.94,46.59Zm7.41.29a1.26,1.26,0,1,0-1.71-.46A1.25,1.25,0,0,0,57.35,46.88Zm5.25-.28a.93.93,0,1,0-1.27-.34A.93.93,0,0,0,62.6,46.6ZM33.85,63.34a1.92,1.92,0,1,0,2.63.7A1.91,1.91,0,0,0,33.85,63.34ZM36.74,59a1.56,1.56,0,1,0,2.16.56A1.58,1.58,0,0,0,36.74,59Zm2.4-2.7a1.26,1.26,0,1,0,.48-1.68A1.23,1.23,0,0,0,39.14,56.26Zm3.37-6a.88.88,0,0,0-.38,1.2.93.93,0,0,0,1.6-.93A.87.87,0,0,0,42.51,50.21ZM69,85.87a1.92,1.92,0,1,0-2.62-.7A1.91,1.91,0,0,0,69,85.87Zm-5-2.46a1.59,1.59,0,1,0-.59,2.17A1.59,1.59,0,0,0,64.05,83.41ZM57.89,85.3a1.26,1.26,0,1,0-1.72-.46A1.26,1.26,0,0,0,57.89,85.3Zm-6.51-1.9A.93.93,0,1,0,52.31,85a.93.93,0,0,0-.93-1.61ZM80.13,66.66a1.92,1.92,0,1,0-2.62-.7A1.91,1.91,0,0,0,80.13,66.66Zm-2.87,4.4a1.59,1.59,0,1,0-2.17-.58A1.59,1.59,0,0,0,77.26,71.06Zm-2.41,2.68a1.26,1.26,0,1,0-.46,1.72A1.26,1.26,0,0,0,74.85,73.74Zm-3.33,6.12a.93.93,0,0,0,.33-1.27.93.93,0,0,0-1.6.93A.93.93,0,0,0,71.52,79.86ZM45.9,86.13A1.92,1.92,0,1,0,44,84.21,1.92,1.92,0,0,0,45.9,86.13Zm-2.7-5a1.59,1.59,0,1,0-1.59-1.59A1.59,1.59,0,0,0,43.2,81.11Zm-2.71-7.53a1.26,1.26,0,1,0,1.26,1.25A1.26,1.26,0,0,0,40.49,73.58Zm-1.78-3.43a.93.93,0,1,0-.92.92A.93.93,0,0,0,38.71,70.15ZM70,45.79a1.92,1.92,0,1,0-1.92,1.92A1.92,1.92,0,0,0,70,45.79Zm2.38,4.69a1.59,1.59,0,1,0-1.59,1.59A1.59,1.59,0,0,0,72.38,50.48Zm1.11,5.94a1.26,1.26,0,1,0-1.26-1.25A1.25,1.25,0,0,0,73.49,56.42Zm1.78,3.43a.93.93,0,1,0,1.85,0,.93.93,0,0,0-1.85,0ZM48.13,39.34a2.34,2.34,0,1,0-1.19,3.09A2.35,2.35,0,0,0,48.13,39.34Zm2.65,2.43a1.94,1.94,0,1,0,1-2.56A1.93,1.93,0,0,0,50.78,41.77Zm9,1.3a1.53,1.53,0,1,0-2-.77A1.53,1.53,0,0,0,59.74,43.07Zm4.91-.25a1.13,1.13,0,1,0,.57-1.49A1.12,1.12,0,0,0,64.65,42.82ZM28,63.13A2.34,2.34,0,1,0,29.14,60,2.36,2.36,0,0,0,28,63.13Zm5.25-8a1.91,1.91,0,1,0,2.54,1A1.92,1.92,0,0,0,33.2,55.09Zm3.25-3a1.53,1.53,0,1,0,.8-2A1.51,1.51,0,0,0,36.45,52.12Zm4.86-6.91a1.1,1.1,0,0,0-.61,1.41,1.13,1.13,0,0,0,2.06-.92A1.09,1.09,0,0,0,41.31,45.21ZM70.13,88.75a2.34,2.34,0,0,0-4.28,1.91,2.34,2.34,0,1,0,4.28-1.91Zm-6.93-.52a1.94,1.94,0,1,0-1,2.56A1.93,1.93,0,0,0,63.2,88.23Zm-9-1.3a1.53,1.53,0,1,0,2,.77A1.54,1.54,0,0,0,54.24,86.93Zm-4.9.25a1.13,1.13,0,0,0-2.07.92,1.12,1.12,0,0,0,1.49.57A1.13,1.13,0,0,0,49.34,87.18ZM86,66.87A2.34,2.34,0,1,0,84.84,70,2.33,2.33,0,0,0,86,66.87ZM80.8,74.94a1.94,1.94,0,1,0-2.56-1A1.94,1.94,0,0,0,80.8,74.94Zm-3.27,2.94a1.53,1.53,0,1,0-.77,2A1.54,1.54,0,0,0,77.53,77.88Zm-4.82,7a1.13,1.13,0,1,0-1.49-.57A1.12,1.12,0,0,0,72.71,84.87ZM40.85,89.21a2.34,2.34,0,1,0-2.08-2.57A2.33,2.33,0,0,0,40.85,89.21Zm-.51-8.15a1.94,1.94,0,1,0-2.13,1.72A1.94,1.94,0,0,0,40.34,81.06ZM35.89,73.3A1.53,1.53,0,1,0,37.25,75,1.53,1.53,0,0,0,35.89,73.3Zm-4-4.62a1.12,1.12,0,0,0,1,1.24,1.13,1.13,0,1,0-1-1.24ZM73.13,40.79a2.34,2.34,0,1,0,2.09,2.57A2.34,2.34,0,0,0,73.13,40.79Zm.51,8.15a1.94,1.94,0,1,0,2.14-1.72A1.94,1.94,0,0,0,73.64,48.94ZM78.1,56.7A1.53,1.53,0,1,0,76.73,55,1.53,1.53,0,0,0,78.1,56.7Zm1.72,4.39a1.13,1.13,0,1,0,1.24-1A1.12,1.12,0,0,0,79.82,61.09ZM49.51,32.75a2.86,2.86,0,1,0-1.83,3.6A2.84,2.84,0,0,0,49.51,32.75Zm4.43.31a2.36,2.36,0,1,0,3,1.51A2.37,2.37,0,0,0,53.94,33.06ZM64.32,36.4a1.87,1.87,0,1,0-1.2,2.36A1.87,1.87,0,0,0,64.32,36.4Zm5.67.94a1.38,1.38,0,1,0,1.74.88A1.39,1.39,0,0,0,70,37.34ZM27.44,57.26a2.86,2.86,0,1,0-1.83,3.6A2.85,2.85,0,0,0,27.44,57.26ZM29.39,50a2.32,2.32,0,1,0,3,1.48A2.35,2.35,0,0,0,29.39,50Zm4.33-3.19a1.87,1.87,0,1,0,1.22-2.28A1.83,1.83,0,0,0,33.72,46.76ZM40.49,39a1.34,1.34,0,0,0-.92,1.63A1.39,1.39,0,1,0,40.49,39ZM68.07,99.08a2.86,2.86,0,1,0-3.6-1.83A2.85,2.85,0,0,0,68.07,99.08Zm-8-2.14a2.36,2.36,0,1,0-3-1.51A2.36,2.36,0,0,0,60,96.94ZM52,94.8a1.87,1.87,0,1,0-2.36-1.2A1.87,1.87,0,0,0,52,94.8Zm-8-2.14a1.38,1.38,0,1,0-1.73-.88A1.38,1.38,0,0,0,44,92.66ZM90.14,74.57a2.86,2.86,0,1,0-3.6-1.83A2.85,2.85,0,0,0,90.14,74.57ZM84.6,80.08a2.36,2.36,0,1,0-3-1.51A2.36,2.36,0,0,0,84.6,80.08Zm-4.34,3.16a1.87,1.87,0,1,0-1.2,2.36A1.86,1.86,0,0,0,80.26,83.24Zm-6.74,7.87a1.38,1.38,0,1,0-1.73-.89A1.38,1.38,0,0,0,73.52,91.11Zm-39.19,1.2a2.86,2.86,0,1,0-2.2-3.39A2.86,2.86,0,0,0,34.33,92.31Zm-2.39-8.14a2.36,2.36,0,1,0-1.82-2.8A2.37,2.37,0,0,0,31.94,84.17ZM29.56,76a1.88,1.88,0,1,0-1.44-2.22A1.88,1.88,0,0,0,29.56,76ZM27.18,67.9a1.38,1.38,0,1,0-1.07-1.64A1.38,1.38,0,0,0,27.18,67.9ZM79.66,37.69a2.86,2.86,0,1,0,2.2,3.39A2.86,2.86,0,0,0,79.66,37.69ZM82,45.83a2.36,2.36,0,1,0,1.82,2.8A2.36,2.36,0,0,0,82,45.83Zm.16,9.58A1.87,1.87,0,1,0,84.42,54,1.88,1.88,0,0,0,82.2,55.41Zm5.67,8.33a1.38,1.38,0,1,0-1.64,1.06A1.38,1.38,0,0,0,87.87,63.74ZM45.22,26.38a3.48,3.48,0,1,0,2.68-4.13A3.48,3.48,0,0,0,45.22,26.38Zm15.56,1.71a2.88,2.88,0,1,0-2.22,3.42A2.88,2.88,0,0,0,60.78,28.09Zm6,1.4a2.28,2.28,0,1,0,2.71,1.76A2.29,2.29,0,0,0,66.82,29.49ZM75,35.1a1.68,1.68,0,1,0,1.29-2A1.68,1.68,0,0,0,75,35.1ZM22.14,51.85A3.48,3.48,0,1,0,19.46,56,3.49,3.49,0,0,0,22.14,51.85Zm1.07-5.25a2.88,2.88,0,1,0,2.23-3.37A2.85,2.85,0,0,0,23.21,46.6Zm9.66-9.3A2.19,2.19,0,1,0,35.55,39,2.24,2.24,0,0,0,32.87,37.3Zm8.07-2.93a1.54,1.54,0,1,0-2-1.15A1.6,1.6,0,0,0,40.94,34.37Zm27.82,69.25a3.48,3.48,0,1,0-2.68,4.13A3.48,3.48,0,0,0,68.76,103.62Zm-12.14.51a2.88,2.88,0,1,0-3.42-2.22A2.88,2.88,0,0,0,56.62,104.13Zm-9.46-3.62a2.28,2.28,0,1,0-2.71-1.76A2.29,2.29,0,0,0,47.16,100.51ZM39,94.9a1.68,1.68,0,1,0-1.3,2A1.69,1.69,0,0,0,39,94.9ZM96,80.84a3.49,3.49,0,1,0-4.13-2.69A3.49,3.49,0,0,0,96,80.84Zm-5.2,2.56a2.88,2.88,0,1,0-2.22,3.41A2.87,2.87,0,0,0,90.77,83.4Zm-9.63,9.39A2.28,2.28,0,1,0,78.43,91,2.27,2.27,0,0,0,81.14,92.79ZM73,95.48a1.69,1.69,0,0,0-1.3,2,1.68,1.68,0,1,0,1.3-2ZM30.41,93A3.48,3.48,0,1,0,26,95.23,3.48,3.48,0,0,0,30.41,93ZM27.8,83.21a2.88,2.88,0,1,0-3.63,1.85A2.88,2.88,0,0,0,27.8,83.21Zm-5.49-8.32A2.28,2.28,0,1,0,20.85,72,2.29,2.29,0,0,0,22.31,74.89ZM20.46,64.71a1.68,1.68,0,1,0-1.08-2.11A1.68,1.68,0,0,0,20.46,64.71ZM83.57,37A3.48,3.48,0,1,0,88,34.77,3.49,3.49,0,0,0,83.57,37Zm2.61,9.78a2.89,2.89,0,1,0,3.63-1.85A2.88,2.88,0,0,0,86.18,46.79Zm5.49,8.32A2.28,2.28,0,1,0,93.13,58,2.29,2.29,0,0,0,91.67,55.11ZM91.4,66.36a1.68,1.68,0,0,0,3.2,1,1.66,1.66,0,0,0-1.08-2.11A1.68,1.68,0,0,0,91.4,66.36ZM52.31,20.44a4.25,4.25,0,1,0-4.67-3.78A4.25,4.25,0,0,0,52.31,20.44Zm7,1a3.51,3.51,0,1,0,3.13-3.86A3.51,3.51,0,0,0,59.3,21.45ZM71,26.24a2.79,2.79,0,1,0,2.48-3.06A2.78,2.78,0,0,0,71,26.24Zm13.49,2.54a2.05,2.05,0,1,0,2.26,1.83A2.05,2.05,0,0,0,84.45,28.78ZM8,45.49a4.25,4.25,0,1,0,3.78-4.67A4.25,4.25,0,0,0,8,45.49Zm10.41-7.11a3.52,3.52,0,1,0,3.14-3.8A3.48,3.48,0,0,0,18.36,38.38ZM31.27,28.33a2.67,2.67,0,1,0,3,2.36A2.72,2.72,0,0,0,31.27,28.33Zm10.15-2.52a1.88,1.88,0,1,0-2.23-1.65A2,2,0,0,0,41.42,25.81Zm20.26,83.75a4.25,4.25,0,1,0,4.67,3.78A4.23,4.23,0,0,0,61.68,109.56Zm-7-1a3.51,3.51,0,1,0-3.13,3.86A3.51,3.51,0,0,0,54.68,108.55ZM43,103.76a2.79,2.79,0,1,0-2.48,3.06A2.78,2.78,0,0,0,43,103.76Zm-13.49-2.54a2.05,2.05,0,1,0-2.25-1.83A2.06,2.06,0,0,0,29.53,101.22ZM106,84.51a4.25,4.25,0,1,0-3.78,4.67A4.23,4.23,0,0,0,106,84.51ZM95.62,91.62a3.51,3.51,0,1,0-3.13,3.86A3.51,3.51,0,0,0,95.62,91.62ZM82.73,101.79a2.79,2.79,0,1,0-3.06-2.48A2.78,2.78,0,0,0,82.73,101.79ZM72.54,104a2,2,0,1,0,2.25,1.82A2,2,0,0,0,72.54,104ZM21.19,95.56a4.25,4.25,0,1,0-5.61,2.16A4.24,4.24,0,0,0,21.19,95.56ZM14.63,85.14a3.51,3.51,0,1,0-1.79-4.64A3.51,3.51,0,0,0,14.63,85.14Zm-1-12.57a2.78,2.78,0,1,0-1.41-3.67A2.79,2.79,0,0,0,13.67,72.57ZM12.72,60a2.05,2.05,0,1,0-1-2.71A2.06,2.06,0,0,0,12.72,60ZM92.8,34.44a4.25,4.25,0,1,0,5.61-2.16A4.23,4.23,0,0,0,92.8,34.44Zm6.56,10.42a3.51,3.51,0,1,0,1.78,4.64A3.51,3.51,0,0,0,99.36,44.86Zm1,12.57a2.78,2.78,0,1,0,1.41,3.67A2.78,2.78,0,0,0,100.31,57.43Zm-.72,16.32a2.05,2.05,0,1,0-1-2.71A2.06,2.06,0,0,0,99.59,73.75ZM57,10.36a5.18,5.18,0,1,0-5.18-5.18A5.18,5.18,0,0,0,57,10.36Zm12.64,6.41a4.29,4.29,0,1,0-4.29-4.29A4.29,4.29,0,0,0,69.63,16.77Zm12.64,6.4a3.4,3.4,0,1,0-3.39-3.39A3.4,3.4,0,0,0,82.27,23.17Zm12.64,6.4a2.5,2.5,0,1,0-2.5-2.5A2.5,2.5,0,0,0,94.91,29.57ZM5.18,40.27A5.18,5.18,0,1,0,0,35.09,5.18,5.18,0,0,0,5.18,40.27ZM17.82,32a4.22,4.22,0,1,0-4.28-4.22A4.26,4.26,0,0,0,17.82,32Zm12.64-8.26a3.26,3.26,0,1,0-3.39-3.25A3.33,3.33,0,0,0,30.46,23.75Zm12.65-8.27a2.4,2.4,0,0,0,2.5-2.28,2.51,2.51,0,0,0-5,0A2.4,2.4,0,0,0,43.11,15.48ZM57,119.64a5.18,5.18,0,1,0,5.19,5.18A5.18,5.18,0,0,0,57,119.64Zm-12.64-6.41a4.29,4.29,0,1,0,4.29,4.29A4.29,4.29,0,0,0,44.35,113.23Zm-12.64-6.4a3.4,3.4,0,1,0,3.39,3.39A3.39,3.39,0,0,0,31.71,106.83Zm-12.64-6.4a2.5,2.5,0,1,0,2.5,2.5A2.5,2.5,0,0,0,19.07,100.43Zm89.73-10.7A5.18,5.18,0,1,0,114,94.91,5.18,5.18,0,0,0,108.8,89.73ZM96.16,97.92a4.29,4.29,0,1,0,4.29,4.29A4.29,4.29,0,0,0,96.16,97.92Zm-12.64,8.19a3.4,3.4,0,1,0,3.39,3.39A3.39,3.39,0,0,0,83.52,106.11ZM70.88,114.3a2.5,2.5,0,1,0,2.5,2.5A2.5,2.5,0,0,0,70.88,114.3ZM7.77,90.43a5.18,5.18,0,1,0,1.9,7.08A5.18,5.18,0,0,0,7.77,90.43ZM3,84a4.29,4.29,0,1,0-1.57-5.86A4.3,4.3,0,0,0,3,84ZM2.25,64a3.4,3.4,0,1,0,4.63-1.24A3.4,3.4,0,0,0,2.25,64Zm5.1-11.65a2.5,2.5,0,1,0-3.41.92A2.5,2.5,0,0,0,7.35,52.37Zm98.86-12.8a5.18,5.18,0,1,0-1.9-7.08A5.19,5.19,0,0,0,106.21,39.57Zm4.73,6.4a4.29,4.29,0,1,0,1.57,5.86A4.28,4.28,0,0,0,110.94,46Zm.8,20a3.4,3.4,0,1,0-4.64,1.24A3.4,3.4,0,0,0,111.74,66Zm-5.11,11.65a2.5,2.5,0,1,0,3.42-.92A2.49,2.49,0,0,0,106.63,77.63Z"/><path class="cls-2" d="M199.76,40.82l-20.1,49.65h-6.45l-20.1-49.65h6.15l17.17,43.27,17.18-43.27Z"/><path class="cls-2" d="M230.66,84.47q-4.5,6.6-13.43,6.6A17,17,0,0,1,204,85.44a19.82,19.82,0,0,1-5-13.72A19.84,19.84,0,0,1,204,58q5.09-5.62,13.57-5.62t13,6.67V53h5.63v37.5h-5.63ZM218,86a11.86,11.86,0,0,0,9.6-4.2,15,15,0,0,0,3.38-10,15,15,0,0,0-3.38-10,11.86,11.86,0,0,0-9.6-4.2,12.46,12.46,0,0,0-9.75,4.2,14.58,14.58,0,0,0-3.52,10,14.58,14.58,0,0,0,3.52,10A12.46,12.46,0,0,0,218,86Z"/><path class="cls-2" d="M251.66,90.47H246V38h5.63Z"/><path class="cls-2" d="M278.13,86q7.58,0,10.88-6.3h6.15A18.14,18.14,0,0,1,289,87.92q-4.25,3.15-10.91,3.15a18.15,18.15,0,0,1-13.8-5.63,19.19,19.19,0,0,1-5.18-13.72q0-8.32,4.95-13.73a19.39,19.39,0,0,1,27.3,0q4.95,5.4,4.95,13.73V74H264.86A13.61,13.61,0,0,0,269,82.52,12.69,12.69,0,0,0,278.13,86Zm-.45-28.5a12.41,12.41,0,0,0-8.7,3.22,13.34,13.34,0,0,0-4.05,8h25.5a13.34,13.34,0,0,0-4.05-8A12.41,12.41,0,0,0,277.68,57.47Z"/><path class="cls-2" d="M308.81,53v5.85a18.84,18.84,0,0,1,4.95-4.58,12.08,12.08,0,0,1,6.67-1.87,17.79,17.79,0,0,1,6.45,1.05,13.09,13.09,0,0,1,4.73,3.15q4.65,4.57,4.65,12.07V90.47h-5.63V68.79a11.47,11.47,0,0,0-2.92-8.25,10,10,0,0,0-7.58-3.07,11.18,11.18,0,0,0-8,3.15,11,11,0,0,0-3.3,8.25v21.6h-5.63V53Z"/><path class="cls-2" d="M363,86a10.52,10.52,0,0,0,6.37-2,11.69,11.69,0,0,0,4.05-5.25h6.08a17.12,17.12,0,0,1-6.3,8.93,19,19,0,0,1-11.4,3.45,17.42,17.42,0,0,1-13.43-5.63,19.51,19.51,0,0,1-5-13.72,19.53,19.53,0,0,1,5-13.73,17.41,17.41,0,0,1,13.43-5.62,19,19,0,0,1,11.4,3.45,17.09,17.09,0,0,1,6.3,8.92h-6.08a11.69,11.69,0,0,0-4.05-5.25,10.51,10.51,0,0,0-6.37-2,15,15,0,0,0-6.12,1.12,12.3,12.3,0,0,0-4.23,3.08,14.4,14.4,0,0,0-3.68,10,14.4,14.4,0,0,0,3.68,10Q356.36,86,363,86Z"/><path class="cls-2" d="M403.16,86q7.57,0,10.87-6.3h6.15A18.07,18.07,0,0,1,414,87.92q-4.23,3.15-10.91,3.15a18.15,18.15,0,0,1-13.8-5.63,19.18,19.18,0,0,1-5.17-13.72q0-8.32,4.95-13.73a19.39,19.39,0,0,1,27.3,0q5,5.4,4.95,13.73V74H389.88A13.62,13.62,0,0,0,394,82.52,12.69,12.69,0,0,0,403.16,86Zm-.45-28.5a12.41,12.41,0,0,0-8.7,3.22,13.34,13.34,0,0,0-4.05,8h25.5a13.34,13.34,0,0,0-4-8A12.41,12.41,0,0,0,402.71,57.47Z"/></g></g></svg>