<svg width="44" height="49" viewBox="0 0 44 49" fill="none" xmlns="http://www.w3.org/2000/svg">
<path d="M19.4705 19.9222C19.4705 20.5822 18.9617 21.1179 18.3338 21.1179C17.7059 21.1179 17.1972 20.5822 17.1972 19.9222C17.1972 19.2622 17.7059 18.7266 18.3338 18.7266C18.9617 18.7266 19.4705 19.2622 19.4705 19.9222ZM19.4797 22.0744H17.188V29.7266H19.4797V22.0744ZM23.1372 22.0744H20.8592V29.7266H23.1372V25.7092C23.1372 23.4757 25.9009 23.294 25.9009 25.7092V29.7266H28.188V24.8818C28.188 21.1131 24.0997 21.2518 23.1372 23.1074V22.0744Z" fill="#1E1E1E"/>
<path opacity="0.2" d="M24.159 47.2921C22.7667 48.096 21.0513 48.096 19.659 47.2921L3.25 37.8184C1.8577 37.0145 1 35.5289 1 33.9213L1 14.9738C0.999999 13.3661 1.8577 11.8805 3.25 11.0766L19.659 1.60289C21.0513 0.799038 22.7667 0.799038 24.159 1.60289L40.568 11.0766C41.9603 11.8805 42.818 13.3661 42.818 14.9738V33.9212C42.818 35.5289 41.9603 37.0145 40.568 37.8184L24.159 47.2921Z" stroke="#1E1E1E"/>
</svg>
